<?xml version="1.0" encoding="UTF-8" standalone="no"?>
<svg width="14px" height="14px" viewBox="0 0 14 14" version="1.1" xmlns="http://www.w3.org/2000/svg" xmlns:xlink="http://www.w3.org/1999/xlink">
    <!-- Generator: Sketch 3.6.1 (26313) - http://www.bohemiancoding.com/sketch -->
    <title>Group 3</title>
    <desc>Created with Sketch.</desc>
    <defs></defs>
    <g id="Page-1" stroke="none" stroke-width="1" fill="none" fill-rule="evenodd">
        <g id="GAMERSORIGIN" transform="translate(-1166.000000, -30.000000)" fill="#FFFFFF">
            <g id="HEADER" transform="translate(0.000000, 18.000000)">
                <g id="SOCIAUX" transform="translate(1075.000000, 12.000000)">
                    <g id="Group-3" transform="translate(91.000000, 0.000000)">
                        <path d="M1.8338403,0 C2.75076046,0 3.51486058,0.763636364 3.51486058,1.68 C3.51486058,2.13818182 3.36204056,2.44363636 3.05640051,2.74909091 C2.75076046,3.05454545 2.29230038,3.20727273 1.98666033,3.20727273 C1.06974018,3.20727273 0.305640051,2.44363636 0.305640051,1.52727273 C0.152820025,0.763636364 0.916920152,0 1.8338403,0 L1.8338403,0 Z" id="Path"></path>
                        <path d="M3.51486058,13.1345455 C3.51486058,13.44 3.36204056,13.5927273 3.05640051,13.5927273 L0.458460076,13.5927273 C0.152820025,13.5927273 0,13.44 0,13.1345455 L0,4.73454545 C0,4.42909091 0.152820025,4.27636364 0.458460076,4.27636364 L3.05640051,4.27636364 C3.36204056,4.27636364 3.51486058,4.42909091 3.51486058,4.73454545 L3.51486058,13.1345455 L3.51486058,13.1345455 Z" id="Path"></path>
                        <path d="M13.6009823,13.1345455 C13.6009823,13.44 13.4481622,13.5927273 13.1425222,13.5927273 L10.8502218,13.5927273 C10.5445817,13.5927273 10.3917617,13.44 10.3917617,13.1345455 L10.3917617,7.94181818 C10.3917617,7.02545455 10.2389417,6.72 9.32202155,6.72 C8.25228137,6.72 7.79382129,7.33090909 7.79382129,8.55272727 L7.79382129,13.1345455 C7.79382129,13.44 7.64100127,13.5927273 7.48818124,13.5927273 L5.04306084,13.5927273 C4.73742079,13.5927273 4.43178074,13.44 4.43178074,13.1345455 L4.43178074,4.58181818 C4.43178074,4.27636364 4.73742079,4.27636364 5.04306084,4.27636364 L7.33536122,4.27636364 C7.64100127,4.27636364 7.79382129,4.42909091 7.79382129,4.73454545 C7.79382129,4.73454545 7.79382129,4.73454545 7.94664132,4.58181818 C8.55792142,4.27636364 9.16920152,3.97090909 10.0861217,3.97090909 C12.3784221,3.97090909 13.7538023,5.19272727 13.7538023,7.33090909 L13.6009823,13.1345455 L13.6009823,13.1345455 L13.6009823,13.1345455 Z" id="Path"></path>
                    </g>
                </g>
            </g>
        </g>
    </g>
</svg>