<?xml version="1.0" encoding="UTF-8" standalone="no"?>
<svg width="17px" height="14px" viewBox="0 0 17 14" version="1.1" xmlns="http://www.w3.org/2000/svg" xmlns:xlink="http://www.w3.org/1999/xlink">
    <!-- Generator: Sketch 3.6.1 (26313) - http://www.bohemiancoding.com/sketch -->
    <title>Shape</title>
    <desc>Created with Sketch.</desc>
    <defs></defs>
    <g id="Page-1" stroke="none" stroke-width="1" fill="none" fill-rule="evenodd">
        <g id="GAMERSORIGIN" transform="translate(-1075.000000, -31.000000)" fill="#FFFFFF">
            <g id="HEADER" transform="translate(0.000000, 18.000000)">
                <g id="SOCIAUX" transform="translate(1075.000000, 12.000000)">
                    <path d="M16.5049616,2.87442546 C16.1298488,3.49923395 15.6296985,3.99908074 14.8794729,4.49892753 L14.8794729,4.74885092 C14.8794729,7.37304656 13.6290971,10.8719741 10.5031574,12.8713612 C9.00270631,13.8710548 7.1271425,14.3709016 5.25157868,14.3709016 C3.75112763,14.3709016 2.12563899,13.9960165 0.875263114,13.2462463 C0.500150351,12.9963229 0.250075175,12.8713612 0.125037588,12.7463995 C0,12.7463995 0,12.6214379 0,12.4964762 C0,12.3715145 0.125037588,12.2465528 0.250075175,12.2465528 L0.625187938,12.2465528 L1.0003007,12.2465528 C2.25067658,12.2465528 3.37601487,11.9966294 4.37631557,11.3718209 C3.12593969,11.1218975 2.25067658,10.1222039 1.75052623,8.99754863 C1.75052623,8.99754863 1.75052623,8.99754863 1.75052623,8.87258693 C1.75052623,8.74762523 1.87556382,8.62266354 2.0006014,8.62266354 L2.12563899,8.62266354 L2.25067658,8.62266354 C1.25037588,7.99785505 0.500150351,6.87319977 0.500150351,5.6235828 C0.500150351,5.4986211 0.625187938,5.37365941 0.875263114,5.37365941 C0.875263114,5.37365941 1.0003007,5.37365941 1.12533829,5.4986211 C1.25037588,5.4986211 1.37541346,5.6235828 1.37541346,5.6235828 C0.875263114,4.99877431 0.500150351,4.24900413 0.500150351,3.37427225 C0.500150351,2.74946376 0.625187938,1.99969358 1.0003007,1.62480849 C1.0003007,1.49984679 1.12533829,1.49984679 1.25037588,1.49984679 C1.37541346,1.49984679 1.37541346,1.49984679 1.50045105,1.62480849 C2.0006014,2.12465528 2.25067658,2.49954037 2.50075175,2.62450207 C4.00120281,3.87411904 5.87676662,4.74885092 7.75233044,4.87381262 L7.75233044,4.49892753 C7.75233044,2.49954037 9.37781908,1 11.3784205,1 C12.3787212,1 13.2539843,1.24992339 13.8791722,1.99969358 C14.5043602,1.87473188 15.1295481,1.62480849 15.754736,1.24992339 L15.8797736,1.24992339 C16.0048112,1.24992339 16.1298488,1.37488509 16.1298488,1.49984679 C16.1298488,1.74977018 15.754736,2.49954037 15.5046609,2.74946376 C15.6296985,2.74946376 15.8797736,2.62450207 16.1298488,2.49954037 L16.379924,2.49954037 C16.5049616,2.49954037 16.6299992,2.62450207 16.6299992,2.74946376 C16.6299992,2.74946376 16.5049616,2.74946376 16.5049616,2.87442546 L16.5049616,2.87442546 Z" id="Shape"></path>
                </g>
            </g>
        </g>
    </g>
</svg>